<mxfile host="65bd71144e">
    <diagram id="models" name="CodeFolio Models">
        <mxGraphModel dx="1089" dy="691" grid="1" gridSize="10" guides="1" tooltips="1" connect="1" arrows="1" fold="1" page="1" pageScale="1" pageWidth="1200" pageHeight="1600" math="0" shadow="0">
            <root>
                <mxCell id="0"/>
                <mxCell id="1" parent="0"/>
                <mxCell id="user" value="User" style="swimlane;fontStyle=1;align=center;verticalAlign=top;childLayout=stackLayout;horizontal=1;startSize=30;horizontalStack=0;resizeParent=1;resizeParentMax=0;resizeLast=0;collapsible=1;marginBottom=0;whiteSpace=wrap;html=1;" parent="1" vertex="1">
                    <mxGeometry x="40" y="40" width="220" height="190" as="geometry"/>
                </mxCell>
                <mxCell id="user-attrs" value="- _id: ObjectId" style="text;strokeColor=none;fillColor=none;align=left;verticalAlign=top;spacingLeft=4;spacingRight=4;overflow=hidden;rotatable=0;points=[[0,0.5],[1,0.5]];portConstraint=eastwest;whiteSpace=wrap;html=1;" parent="user" vertex="1">
                    <mxGeometry y="30" width="220" height="26" as="geometry"/>
                </mxCell>
                <mxCell id="user-username" value="- username: String" style="text;strokeColor=none;fillColor=none;align=left;verticalAlign=top;spacingLeft=4;spacingRight=4;overflow=hidden;rotatable=0;points=[[0,0.5],[1,0.5]];portConstraint=eastwest;whiteSpace=wrap;html=1;" parent="user" vertex="1">
                    <mxGeometry y="56" width="220" height="26" as="geometry"/>
                </mxCell>
                <mxCell id="user-password" value="- passwordHash: String" style="text;strokeColor=none;fillColor=none;align=left;verticalAlign=top;spacingLeft=4;spacingRight=4;overflow=hidden;rotatable=0;points=[[0,0.5],[1,0.5]];portConstraint=eastwest;whiteSpace=wrap;html=1;" parent="user" vertex="1">
                    <mxGeometry y="82" width="220" height="26" as="geometry"/>
                </mxCell>
                <mxCell id="user-role" value="- role: Enum (ADMIN, VISITOR)" style="text;strokeColor=none;fillColor=none;align=left;verticalAlign=top;spacingLeft=4;spacingRight=4;overflow=hidden;rotatable=0;points=[[0,0.5],[1,0.5]];portConstraint=eastwest;whiteSpace=wrap;html=1;" parent="user" vertex="1">
                    <mxGeometry y="108" width="220" height="26" as="geometry"/>
                </mxCell>
                <mxCell id="user-sep" value="" style="line;strokeWidth=1;fillColor=none;align=left;verticalAlign=middle;spacingTop=-1;spacingLeft=3;spacingRight=3;rotatable=0;labelPosition=right;points=[];portConstraint=eastwest;strokeColor=inherit;" parent="user" vertex="1">
                    <mxGeometry y="134" width="220" height="8" as="geometry"/>
                </mxCell>
                <mxCell id="user-timestamps" value="- createdAt: Date&#10;- updatedAt: Date" style="text;strokeColor=none;fillColor=none;align=left;verticalAlign=top;spacingLeft=4;spacingRight=4;overflow=hidden;rotatable=0;points=[[0,0.5],[1,0.5]];portConstraint=eastwest;whiteSpace=wrap;html=1;" parent="user" vertex="1">
                    <mxGeometry y="142" width="220" height="48" as="geometry"/>
                </mxCell>
                <mxCell id="profil" value="Profil" style="swimlane;fontStyle=1;align=center;verticalAlign=top;childLayout=stackLayout;horizontal=1;startSize=30;horizontalStack=0;resizeParent=1;resizeParentMax=0;resizeLast=0;collapsible=1;marginBottom=0;whiteSpace=wrap;html=1;" parent="1" vertex="1">
                    <mxGeometry x="40" y="280" width="220" height="320" as="geometry"/>
                </mxCell>
                <mxCell id="profil-attrs" value="- _id: ObjectId" style="text;strokeColor=none;fillColor=none;align=left;verticalAlign=top;spacingLeft=4;spacingRight=4;overflow=hidden;rotatable=0;points=[[0,0.5],[1,0.5]];portConstraint=eastwest;whiteSpace=wrap;html=1;" parent="profil" vertex="1">
                    <mxGeometry y="30" width="220" height="26" as="geometry"/>
                </mxCell>
                <mxCell id="profil-fullname" value="- fullname: String" style="text;strokeColor=none;fillColor=none;align=left;verticalAlign=top;spacingLeft=4;spacingRight=4;overflow=hidden;rotatable=0;points=[[0,0.5],[1,0.5]];portConstraint=eastwest;whiteSpace=wrap;html=1;" parent="profil" vertex="1">
                    <mxGeometry y="56" width="220" height="26" as="geometry"/>
                </mxCell>
                <mxCell id="profil-title" value="- title: String" style="text;strokeColor=none;fillColor=none;align=left;verticalAlign=top;spacingLeft=4;spacingRight=4;overflow=hidden;rotatable=0;points=[[0,0.5],[1,0.5]];portConstraint=eastwest;whiteSpace=wrap;html=1;" parent="profil" vertex="1">
                    <mxGeometry y="82" width="220" height="26" as="geometry"/>
                </mxCell>
                <mxCell id="profil-bio" value="- bio: String" style="text;strokeColor=none;fillColor=none;align=left;verticalAlign=top;spacingLeft=4;spacingRight=4;overflow=hidden;rotatable=0;points=[[0,0.5],[1,0.5]];portConstraint=eastwest;whiteSpace=wrap;html=1;" parent="profil" vertex="1">
                    <mxGeometry y="108" width="220" height="26" as="geometry"/>
                </mxCell>
                <mxCell id="profil-avatar" value="- avatarUrl: String (optional)" style="text;strokeColor=none;fillColor=none;align=left;verticalAlign=top;spacingLeft=4;spacingRight=4;overflow=hidden;rotatable=0;points=[[0,0.5],[1,0.5]];portConstraint=eastwest;whiteSpace=wrap;html=1;" parent="profil" vertex="1">
                    <mxGeometry y="134" width="220" height="26" as="geometry"/>
                </mxCell>
                <mxCell id="profil-social" value="- socialLinks: [ISocialLink]" style="text;strokeColor=none;fillColor=none;align=left;verticalAlign=top;spacingLeft=4;spacingRight=4;overflow=hidden;rotatable=0;points=[[0,0.5],[1,0.5]];portConstraint=eastwest;whiteSpace=wrap;html=1;" parent="profil" vertex="1">
                    <mxGeometry y="160" width="220" height="52" as="geometry"/>
                </mxCell>
                <mxCell id="profil-contact" value="- contact: IContact" style="text;strokeColor=none;fillColor=none;align=left;verticalAlign=top;spacingLeft=4;spacingRight=4;overflow=hidden;rotatable=0;points=[[0,0.5],[1,0.5]];portConstraint=eastwest;whiteSpace=wrap;html=1;" parent="profil" vertex="1">
                    <mxGeometry y="212" width="220" height="52" as="geometry"/>
                </mxCell>
                <mxCell id="profil-sep" value="" style="line;strokeWidth=1;fillColor=none;align=left;verticalAlign=middle;spacingTop=-1;spacingLeft=3;spacingRight=3;rotatable=0;labelPosition=right;points=[];portConstraint=eastwest;strokeColor=inherit;" parent="profil" vertex="1">
                    <mxGeometry y="264" width="220" height="8" as="geometry"/>
                </mxCell>
                <mxCell id="profil-timestamps" value="- createdAt: Date&#10;- updatedAt: Date" style="text;strokeColor=none;fillColor=none;align=left;verticalAlign=top;spacingLeft=4;spacingRight=4;overflow=hidden;rotatable=0;points=[[0,0.5],[1,0.5]];portConstraint=eastwest;whiteSpace=wrap;html=1;" parent="profil" vertex="1">
                    <mxGeometry y="272" width="220" height="48" as="geometry"/>
                </mxCell>
                <mxCell id="social-link" value="SocialLink (Embedded)" style="swimlane;fontStyle=1;align=center;verticalAlign=top;childLayout=stackLayout;horizontal=1;startSize=26;horizontalStack=0;resizeParent=1;resizeParentMax=0;resizeLast=0;collapsible=1;marginBottom=0;whiteSpace=wrap;html=1;fillColor=#e0e0e0;" parent="1" vertex="1">
                    <mxGeometry x="300" y="370" width="180" height="78" as="geometry"/>
                </mxCell>
                <mxCell id="social-platform" value="- platform: String" style="text;strokeColor=none;fillColor=none;align=left;verticalAlign=top;spacingLeft=4;spacingRight=4;overflow=hidden;rotatable=0;points=[[0,0.5],[1,0.5]];portConstraint=eastwest;whiteSpace=wrap;html=1;" parent="social-link" vertex="1">
                    <mxGeometry y="26" width="180" height="26" as="geometry"/>
                </mxCell>
                <mxCell id="social-url" value="- url: String" style="text;strokeColor=none;fillColor=none;align=left;verticalAlign=top;spacingLeft=4;spacingRight=4;overflow=hidden;rotatable=0;points=[[0,0.5],[1,0.5]];portConstraint=eastwest;whiteSpace=wrap;html=1;" parent="social-link" vertex="1">
                    <mxGeometry y="52" width="180" height="26" as="geometry"/>
                </mxCell>
                <mxCell id="contact" value="Contact (Embedded)" style="swimlane;fontStyle=1;align=center;verticalAlign=top;childLayout=stackLayout;horizontal=1;startSize=26;horizontalStack=0;resizeParent=1;resizeParentMax=0;resizeLast=0;collapsible=1;marginBottom=0;whiteSpace=wrap;html=1;fillColor=#e0e0e0;" parent="1" vertex="1">
                    <mxGeometry x="300" y="480" width="180" height="104" as="geometry"/>
                </mxCell>
                <mxCell id="contact-email" value="- email: String" style="text;strokeColor=none;fillColor=none;align=left;verticalAlign=top;spacingLeft=4;spacingRight=4;overflow=hidden;rotatable=0;points=[[0,0.5],[1,0.5]];portConstraint=eastwest;whiteSpace=wrap;html=1;" parent="contact" vertex="1">
                    <mxGeometry y="26" width="180" height="26" as="geometry"/>
                </mxCell>
                <mxCell id="contact-phone" value="- phone: String (optional)" style="text;strokeColor=none;fillColor=none;align=left;verticalAlign=top;spacingLeft=4;spacingRight=4;overflow=hidden;rotatable=0;points=[[0,0.5],[1,0.5]];portConstraint=eastwest;whiteSpace=wrap;html=1;" parent="contact" vertex="1">
                    <mxGeometry y="52" width="180" height="26" as="geometry"/>
                </mxCell>
                <mxCell id="contact-location" value="- location: String (optional)" style="text;strokeColor=none;fillColor=none;align=left;verticalAlign=top;spacingLeft=4;spacingRight=4;overflow=hidden;rotatable=0;points=[[0,0.5],[1,0.5]];portConstraint=eastwest;whiteSpace=wrap;html=1;" parent="contact" vertex="1">
                    <mxGeometry y="78" width="180" height="26" as="geometry"/>
                </mxCell>
                <mxCell id="projet" value="Projet" style="swimlane;fontStyle=1;align=center;verticalAlign=top;childLayout=stackLayout;horizontal=1;startSize=30;horizontalStack=0;resizeParent=1;resizeParentMax=0;resizeLast=0;collapsible=1;marginBottom=0;whiteSpace=wrap;html=1;" parent="1" vertex="1">
                    <mxGeometry x="520" y="40" width="260" height="428" as="geometry"/>
                </mxCell>
                <mxCell id="projet-attrs" value="- _id: ObjectId" style="text;strokeColor=none;fillColor=none;align=left;verticalAlign=top;spacingLeft=4;spacingRight=4;overflow=hidden;rotatable=0;points=[[0,0.5],[1,0.5]];portConstraint=eastwest;whiteSpace=wrap;html=1;" parent="projet" vertex="1">
                    <mxGeometry y="30" width="260" height="26" as="geometry"/>
                </mxCell>
                <mxCell id="projet-title" value="- title: String" style="text;strokeColor=none;fillColor=none;align=left;verticalAlign=top;spacingLeft=4;spacingRight=4;overflow=hidden;rotatable=0;points=[[0,0.5],[1,0.5]];portConstraint=eastwest;whiteSpace=wrap;html=1;" parent="projet" vertex="1">
                    <mxGeometry y="56" width="260" height="26" as="geometry"/>
                </mxCell>
                <mxCell id="projet-summary" value="- summary: String" style="text;strokeColor=none;fillColor=none;align=left;verticalAlign=top;spacingLeft=4;spacingRight=4;overflow=hidden;rotatable=0;points=[[0,0.5],[1,0.5]];portConstraint=eastwest;whiteSpace=wrap;html=1;" parent="projet" vertex="1">
                    <mxGeometry y="82" width="260" height="26" as="geometry"/>
                </mxCell>
                <mxCell id="projet-description" value="- description: String" style="text;strokeColor=none;fillColor=none;align=left;verticalAlign=top;spacingLeft=4;spacingRight=4;overflow=hidden;rotatable=0;points=[[0,0.5],[1,0.5]];portConstraint=eastwest;whiteSpace=wrap;html=1;" parent="projet" vertex="1">
                    <mxGeometry y="108" width="260" height="26" as="geometry"/>
                </mxCell>
                <mxCell id="projet-repo" value="- repoUrl: String (optional)" style="text;strokeColor=none;fillColor=none;align=left;verticalAlign=top;spacingLeft=4;spacingRight=4;overflow=hidden;rotatable=0;points=[[0,0.5],[1,0.5]];portConstraint=eastwest;whiteSpace=wrap;html=1;" parent="projet" vertex="1">
                    <mxGeometry y="134" width="260" height="26" as="geometry"/>
                </mxCell>
                <mxCell id="projet-live" value="- liveUrl: String (optional)" style="text;strokeColor=none;fillColor=none;align=left;verticalAlign=top;spacingLeft=4;spacingRight=4;overflow=hidden;rotatable=0;points=[[0,0.5],[1,0.5]];portConstraint=eastwest;whiteSpace=wrap;html=1;" parent="projet" vertex="1">
                    <mxGeometry y="160" width="260" height="26" as="geometry"/>
                </mxCell>
                <mxCell id="projet-category" value="- category: String" style="text;strokeColor=none;fillColor=none;align=left;verticalAlign=top;spacingLeft=4;spacingRight=4;overflow=hidden;rotatable=0;points=[[0,0.5],[1,0.5]];portConstraint=eastwest;whiteSpace=wrap;html=1;" parent="projet" vertex="1">
                    <mxGeometry y="186" width="260" height="26" as="geometry"/>
                </mxCell>
                <mxCell id="projet-techs" value="- technologies: [ObjectId]" style="text;strokeColor=none;fillColor=none;align=left;verticalAlign=top;spacingLeft=4;spacingRight=4;overflow=hidden;rotatable=0;points=[[0,0.5],[1,0.5]];portConstraint=eastwest;whiteSpace=wrap;html=1;" parent="projet" vertex="1">
                    <mxGeometry y="212" width="260" height="26" as="geometry"/>
                </mxCell>
                <mxCell id="projet-tags" value="- tags: [String]" style="text;strokeColor=none;fillColor=none;align=left;verticalAlign=top;spacingLeft=4;spacingRight=4;overflow=hidden;rotatable=0;points=[[0,0.5],[1,0.5]];portConstraint=eastwest;whiteSpace=wrap;html=1;" parent="projet" vertex="1">
                    <mxGeometry y="238" width="260" height="26" as="geometry"/>
                </mxCell>
                <mxCell id="projet-images" value="- images: [String]" style="text;strokeColor=none;fillColor=none;align=left;verticalAlign=top;spacingLeft=4;spacingRight=4;overflow=hidden;rotatable=0;points=[[0,0.5],[1,0.5]];portConstraint=eastwest;whiteSpace=wrap;html=1;" parent="projet" vertex="1">
                    <mxGeometry y="264" width="260" height="26" as="geometry"/>
                </mxCell>
                <mxCell id="projet-start" value="- dateStart: Date" style="text;strokeColor=none;fillColor=none;align=left;verticalAlign=top;spacingLeft=4;spacingRight=4;overflow=hidden;rotatable=0;points=[[0,0.5],[1,0.5]];portConstraint=eastwest;whiteSpace=wrap;html=1;" parent="projet" vertex="1">
                    <mxGeometry y="290" width="260" height="26" as="geometry"/>
                </mxCell>
                <mxCell id="projet-end" value="- dateEnd: Date (optional)" style="text;strokeColor=none;fillColor=none;align=left;verticalAlign=top;spacingLeft=4;spacingRight=4;overflow=hidden;rotatable=0;points=[[0,0.5],[1,0.5]];portConstraint=eastwest;whiteSpace=wrap;html=1;" parent="projet" vertex="1">
                    <mxGeometry y="316" width="260" height="26" as="geometry"/>
                </mxCell>
                <mxCell id="projet-featured" value="- featured: Boolean" style="text;strokeColor=none;fillColor=none;align=left;verticalAlign=top;spacingLeft=4;spacingRight=4;overflow=hidden;rotatable=0;points=[[0,0.5],[1,0.5]];portConstraint=eastwest;whiteSpace=wrap;html=1;" parent="projet" vertex="1">
                    <mxGeometry y="342" width="260" height="26" as="geometry"/>
                </mxCell>
                <mxCell id="projet-sep" value="" style="line;strokeWidth=1;fillColor=none;align=left;verticalAlign=middle;spacingTop=-1;spacingLeft=3;spacingRight=3;rotatable=0;labelPosition=right;points=[];portConstraint=eastwest;strokeColor=inherit;" parent="projet" vertex="1">
                    <mxGeometry y="368" width="260" height="8" as="geometry"/>
                </mxCell>
                <mxCell id="projet-timestamps" value="- createdAt: Date&#10;- updatedAt: Date" style="text;strokeColor=none;fillColor=none;align=left;verticalAlign=top;spacingLeft=4;spacingRight=4;overflow=hidden;rotatable=0;points=[[0,0.5],[1,0.5]];portConstraint=eastwest;whiteSpace=wrap;html=1;" parent="projet" vertex="1">
                    <mxGeometry y="376" width="260" height="52" as="geometry"/>
                </mxCell>
                <mxCell id="technologie" value="Technologie" style="swimlane;fontStyle=1;align=center;verticalAlign=top;childLayout=stackLayout;horizontal=1;startSize=30;horizontalStack=0;resizeParent=1;resizeParentMax=0;resizeLast=0;collapsible=1;marginBottom=0;whiteSpace=wrap;html=1;" parent="1" vertex="1">
                    <mxGeometry x="820" y="40" width="220" height="220" as="geometry"/>
                </mxCell>
                <mxCell id="tech-attrs" value="- _id: ObjectId" style="text;strokeColor=none;fillColor=none;align=left;verticalAlign=top;spacingLeft=4;spacingRight=4;overflow=hidden;rotatable=0;points=[[0,0.5],[1,0.5]];portConstraint=eastwest;whiteSpace=wrap;html=1;" parent="technologie" vertex="1">
                    <mxGeometry y="30" width="220" height="26" as="geometry"/>
                </mxCell>
                <mxCell id="tech-name" value="- name: String" style="text;strokeColor=none;fillColor=none;align=left;verticalAlign=top;spacingLeft=4;spacingRight=4;overflow=hidden;rotatable=0;points=[[0,0.5],[1,0.5]];portConstraint=eastwest;whiteSpace=wrap;html=1;" parent="technologie" vertex="1">
                    <mxGeometry y="56" width="220" height="26" as="geometry"/>
                </mxCell>
                <mxCell id="tech-category" value="- category: String" style="text;strokeColor=none;fillColor=none;align=left;verticalAlign=top;spacingLeft=4;spacingRight=4;overflow=hidden;rotatable=0;points=[[0,0.5],[1,0.5]];portConstraint=eastwest;whiteSpace=wrap;html=1;" parent="technologie" vertex="1">
                    <mxGeometry y="82" width="220" height="26" as="geometry"/>
                </mxCell>
                <mxCell id="tech-logo" value="- logoUrl: String (optional)" style="text;strokeColor=none;fillColor=none;align=left;verticalAlign=top;spacingLeft=4;spacingRight=4;overflow=hidden;rotatable=0;points=[[0,0.5],[1,0.5]];portConstraint=eastwest;whiteSpace=wrap;html=1;" parent="technologie" vertex="1">
                    <mxGeometry y="108" width="220" height="26" as="geometry"/>
                </mxCell>
                <mxCell id="tech-sep" value="" style="line;strokeWidth=1;fillColor=none;align=left;verticalAlign=middle;spacingTop=-1;spacingLeft=3;spacingRight=3;rotatable=0;labelPosition=right;points=[];portConstraint=eastwest;strokeColor=inherit;" parent="technologie" vertex="1">
                    <mxGeometry y="134" width="220" height="8" as="geometry"/>
                </mxCell>
                <mxCell id="tech-timestamps" value="- createdAt: Date&#10;- updatedAt: Date" style="text;strokeColor=none;fillColor=none;align=left;verticalAlign=top;spacingLeft=4;spacingRight=4;overflow=hidden;rotatable=0;points=[[0,0.5],[1,0.5]];portConstraint=eastwest;whiteSpace=wrap;html=1;" parent="technologie" vertex="1">
                    <mxGeometry y="142" width="220" height="52" as="geometry"/>
                </mxCell>
                <mxCell id="competence" value="Competence" style="swimlane;fontStyle=1;align=center;verticalAlign=top;childLayout=stackLayout;horizontal=1;startSize=30;horizontalStack=0;resizeParent=1;resizeParentMax=0;resizeLast=0;collapsible=1;marginBottom=0;whiteSpace=wrap;html=1;" parent="1" vertex="1">
                    <mxGeometry x="820" y="310" width="220" height="164" as="geometry"/>
                </mxCell>
                <mxCell id="comp-attrs" value="- _id: ObjectId" style="text;strokeColor=none;fillColor=none;align=left;verticalAlign=top;spacingLeft=4;spacingRight=4;overflow=hidden;rotatable=0;points=[[0,0.5],[1,0.5]];portConstraint=eastwest;whiteSpace=wrap;html=1;" parent="competence" vertex="1">
                    <mxGeometry y="30" width="220" height="26" as="geometry"/>
                </mxCell>
                <mxCell id="comp-name" value="- name: String" style="text;strokeColor=none;fillColor=none;align=left;verticalAlign=top;spacingLeft=4;spacingRight=4;overflow=hidden;rotatable=0;points=[[0,0.5],[1,0.5]];portConstraint=eastwest;whiteSpace=wrap;html=1;" parent="competence" vertex="1">
                    <mxGeometry y="56" width="220" height="26" as="geometry"/>
                </mxCell>
                <mxCell id="comp-level" value="- level: Number (1-5)" style="text;strokeColor=none;fillColor=none;align=left;verticalAlign=top;spacingLeft=4;spacingRight=4;overflow=hidden;rotatable=0;points=[[0,0.5],[1,0.5]];portConstraint=eastwest;whiteSpace=wrap;html=1;" parent="competence" vertex="1">
                    <mxGeometry y="82" width="220" height="26" as="geometry"/>
                </mxCell>
                <mxCell id="comp-sep" value="" style="line;strokeWidth=1;fillColor=none;align=left;verticalAlign=middle;spacingTop=-1;spacingLeft=3;spacingRight=3;rotatable=0;labelPosition=right;points=[];portConstraint=eastwest;strokeColor=inherit;" parent="competence" vertex="1">
                    <mxGeometry y="108" width="220" height="8" as="geometry"/>
                </mxCell>
                <mxCell id="comp-timestamps" value="- createdAt: Date&#10;- updatedAt: Date" style="text;strokeColor=none;fillColor=none;align=left;verticalAlign=top;spacingLeft=4;spacingRight=4;overflow=hidden;rotatable=0;points=[[0,0.5],[1,0.5]];portConstraint=eastwest;whiteSpace=wrap;html=1;" parent="competence" vertex="1">
                    <mxGeometry y="116" width="220" height="48" as="geometry"/>
                </mxCell>
                <mxCell id="experience" value="Experience" style="swimlane;fontStyle=1;align=center;verticalAlign=top;childLayout=stackLayout;horizontal=1;startSize=30;horizontalStack=0;resizeParent=1;resizeParentMax=0;resizeLast=0;collapsible=1;marginBottom=0;whiteSpace=wrap;html=1;" parent="1" vertex="1">
                    <mxGeometry x="820" y="550" width="220" height="280" as="geometry"/>
                </mxCell>
                <mxCell id="exp-attrs" value="- _id: ObjectId" style="text;strokeColor=none;fillColor=none;align=left;verticalAlign=top;spacingLeft=4;spacingRight=4;overflow=hidden;rotatable=0;points=[[0,0.5],[1,0.5]];portConstraint=eastwest;whiteSpace=wrap;html=1;" parent="experience" vertex="1">
                    <mxGeometry y="30" width="220" height="26" as="geometry"/>
                </mxCell>
                <mxCell id="exp-title" value="- title: String" style="text;strokeColor=none;fillColor=none;align=left;verticalAlign=top;spacingLeft=4;spacingRight=4;overflow=hidden;rotatable=0;points=[[0,0.5],[1,0.5]];portConstraint=eastwest;whiteSpace=wrap;html=1;" parent="experience" vertex="1">
                    <mxGeometry y="56" width="220" height="26" as="geometry"/>
                </mxCell>
                <mxCell id="exp-company" value="- company: String" style="text;strokeColor=none;fillColor=none;align=left;verticalAlign=top;spacingLeft=4;spacingRight=4;overflow=hidden;rotatable=0;points=[[0,0.5],[1,0.5]];portConstraint=eastwest;whiteSpace=wrap;html=1;" parent="experience" vertex="1">
                    <mxGeometry y="82" width="220" height="26" as="geometry"/>
                </mxCell>
                <mxCell id="exp-start" value="- startDate: Date" style="text;strokeColor=none;fillColor=none;align=left;verticalAlign=top;spacingLeft=4;spacingRight=4;overflow=hidden;rotatable=0;points=[[0,0.5],[1,0.5]];portConstraint=eastwest;whiteSpace=wrap;html=1;" parent="experience" vertex="1">
                    <mxGeometry y="108" width="220" height="26" as="geometry"/>
                </mxCell>
                <mxCell id="exp-end" value="- endDate: Date (optional)" style="text;strokeColor=none;fillColor=none;align=left;verticalAlign=top;spacingLeft=4;spacingRight=4;overflow=hidden;rotatable=0;points=[[0,0.5],[1,0.5]];portConstraint=eastwest;whiteSpace=wrap;html=1;" parent="experience" vertex="1">
                    <mxGeometry y="134" width="220" height="26" as="geometry"/>
                </mxCell>
                <mxCell id="exp-description" value="- description: String" style="text;strokeColor=none;fillColor=none;align=left;verticalAlign=top;spacingLeft=4;spacingRight=4;overflow=hidden;rotatable=0;points=[[0,0.5],[1,0.5]];portConstraint=eastwest;whiteSpace=wrap;html=1;" parent="experience" vertex="1">
                    <mxGeometry y="160" width="220" height="26" as="geometry"/>
                </mxCell>
                <mxCell id="exp-location" value="- location: String (optional)" style="text;strokeColor=none;fillColor=none;align=left;verticalAlign=top;spacingLeft=4;spacingRight=4;overflow=hidden;rotatable=0;points=[[0,0.5],[1,0.5]];portConstraint=eastwest;whiteSpace=wrap;html=1;" parent="experience" vertex="1">
                    <mxGeometry y="186" width="220" height="26" as="geometry"/>
                </mxCell>
                <mxCell id="exp-sep" value="" style="line;strokeWidth=1;fillColor=none;align=left;verticalAlign=middle;spacingTop=-1;spacingLeft=3;spacingRight=3;rotatable=0;labelPosition=right;points=[];portConstraint=eastwest;strokeColor=inherit;" parent="experience" vertex="1">
                    <mxGeometry y="212" width="220" height="8" as="geometry"/>
                </mxCell>
                <mxCell id="exp-timestamps" value="- createdAt: Date&#10;- updatedAt: Date" style="text;strokeColor=none;fillColor=none;align=left;verticalAlign=top;spacingLeft=4;spacingRight=4;overflow=hidden;rotatable=0;points=[[0,0.5],[1,0.5]];portConstraint=eastwest;whiteSpace=wrap;html=1;" parent="experience" vertex="1">
                    <mxGeometry y="220" width="220" height="52" as="geometry"/>
                </mxCell>
                <mxCell id="projet-to-tech" value="many" style="endArrow=diamondThin;endSize=24;html=1;edgeStyle=orthogonalEdgeStyle;rounded=0;labelBackgroundColor=#ffffff;" parent="1" source="projet" target="technologie" edge="1">
                    <mxGeometry relative="1" as="geometry">
                        <mxPoint x="800" y="250" as="targetPoint"/>
                        <Array as="points">
                            <mxPoint x="790" y="250"/>
                        </Array>
                    </mxGeometry>
                </mxCell>
                <mxCell id="profil-to-social" value="1..*" style="endArrow=diamondThin;endSize=24;html=1;edgeStyle=orthogonalEdgeStyle;rounded=0;dashed=1;labelBackgroundColor=#ffffff;" parent="1" source="profil" target="social-link" edge="1">
                    <mxGeometry relative="1" as="geometry">
                        <mxPoint x="300" y="400" as="targetPoint"/>
                        <Array as="points">
                            <mxPoint x="300" y="240"/>
                        </Array>
                    </mxGeometry>
                </mxCell>
                <mxCell id="profil-to-contact" value="1..1" style="endArrow=diamondThin;endSize=24;html=1;edgeStyle=orthogonalEdgeStyle;rounded=0;dashed=1;labelBackgroundColor=#ffffff;" parent="1" source="profil" target="contact" edge="1">
                    <mxGeometry relative="1" as="geometry">
                        <mxPoint x="300" y="500" as="targetPoint"/>
                        <Array as="points">
                            <mxPoint x="300" y="300"/>
                        </Array>
                    </mxGeometry>
                </mxCell>
            </root>
        </mxGraphModel>
    </diagram>
</mxfile>